<?xml version="1.0" encoding="utf-8"?>
<!-- Generator: Adobe Illustrator 22.1.0, SVG Export Plug-In . SVG Version: 6.00 Build 0)  -->
<svg version="1.1" id="Capa_1" xmlns="http://www.w3.org/2000/svg" xmlns:xlink="http://www.w3.org/1999/xlink" x="0px" y="0px"
	 viewBox="0 0 100 100" style="enable-background:new 0 0 100 100;" xml:space="preserve">
<style type="text/css">
	.st0{fill:#00D8CC;}
</style>
<title>iconos</title>
<g id="siembra">
	<path class="st0" d="M46.2,76.1c-1.6-10-0.5-20.2,3.1-29.6c-3.5-2.2-13.1-9.6-9.5-22.9c0.3-1.5,3.3-14,32.5-22.2l1.5-0.4l0.4,1.5
		c0.2,0.9,5.5,21.2-1.7,33c-2.8,4.5-8.5,10.2-19.9,11.9l-0.1-0.6c-6,14.1-3.3,28.6-3.3,28.7L46.2,76.1z M71.6,4.8
		c-13.8,4.1-20.9,9.1-24.4,12.6c-3.9,3.9-4.4,6.8-4.4,6.8v0.2C39,38,51.3,44.3,51.9,44.5l0.2,0.1v-0.2C62.4,43,67.5,38,69.9,34
		C75.4,25,72.7,9.6,71.6,4.8z"/>
	<path class="st0" d="M47,69.8c-0.3,0-6.7-0.1-12.8-8.3c-3.4,2.5-7.7,3.5-11.8,2.5c-7.1-1.9-11.3-8.2-12.2-18.2
		C9.8,41,10.1,36.3,11,31.6l0.3-1.6l1.6,0.5c15.6,5,23.2,9.9,25.7,16.3c1.8,4.3,1,9.3-2.2,12.8c5.3,7,10.4,7.2,10.6,7.2L47,69.8z
		 M13.6,33.8C12.8,39.5,11,58,23.1,61c3.3,0.8,6.7,0.1,9.4-2l0,0l1.1-0.9c0.2-0.1,4.7-3.8,2.2-10.3C33.8,42.6,27,38.3,13.6,33.8z"/>
	<path class="st0" d="M50.8,37.4c0-0.5-1-13.2,11.3-23.8l2,2.3C53,25.5,53.8,37,53.8,37.2L50.8,37.4z"/>
	<path class="st0" d="M49.5,69.9l-2.6-1.5c0.1-0.2,3.4-5.6,12.2-7.8c-1.3-5.3,1.1-10.9,5.9-13.7c1.7-1.1,3.8-1.6,5.8-1.5
		c4.9-0.1,11,1.7,18,5.5l1.3,0.7l-0.7,1.3c-0.3,0.5-6.6,11.7-14.8,13.8c-3.2,0.8-8.2,0.9-14-3.3l0.1-0.1
		C52.5,65,49.6,69.7,49.5,69.9z M62.3,61c4.8,3.5,8.9,3.4,11.5,2.8c5.5-1.4,10.3-8.2,12.2-11c-13.9-7.1-19.2-3.5-19.2-3.4l-0.2,0.1
		C60.2,53.2,62,59.8,62.3,61z"/>
	<path class="st0" d="M67,58.7l-2.9-0.8c0.1-0.2,1.5-5.1,8.6-5.1l0,0v3l0,0C68,55.7,67.1,58.5,67,58.7z"/>
	<path class="st0" d="M29.6,56.9c-0.4-0.1-10.2-2.7-12.3-12.5l2.9-0.6c1.8,8,10.1,10.2,10.1,10.3L29.6,56.9z"/>
	<path class="st0" d="M96,99.3H6.1L5.9,98c-0.2-1.5-0.8-6.4,0.1-8.3c1.2-2.4,5.3-5.6,7.8-6.2c1.6-0.3,3.3-0.3,4.9-0.1
		c1,0.1,2,0.1,2.9,0.1c1.3-0.3,2.5-0.7,3.7-1.3c1-0.4,2.8-1.4,4.2-2.1l2-1c0.3-0.2,0.7-0.4,1.1-0.6c1.1-0.7,2.4-1.3,3.6-1.7
		c1.3-0.2,2.7-0.2,4-0.1c0.9,0.1,1.8,0.1,2.7,0c0.7-0.2,1.4-0.4,2-0.7c0.8-0.3,1.5-0.6,2.3-0.8c1.3-0.4,2.6-0.5,3.9-0.2
		c0.7,0.3,1.4,0.7,2,1.2c0.2,0.2,0.5,0.4,0.8,0.6c1.1,0.3,2.1,0.6,3.2,0.8c0.8,0.1,1.5,0.3,2.1,0.4l1.1,0.3c2.3,0.5,4.5,1.2,6.6,2.1
		c0.7,0.4,1.4,0.9,2,1.5c0.5,0.4,1,0.8,1.5,1.2c1.6,0.4,3.2,0.6,4.8,0.7c1.8,0,3.5,0.3,5.2,0.7c1.3,0.6,2.6,1.3,3.7,2.1
		c0.9,0.6,1.9,1.2,2.9,1.7c0.6,0.1,1.3,0.2,1.9,0.2c1.6,0.1,3.3,0.2,4.4,1.2c1.6,1.5,2.2,6.1,2.3,8L96,99.3z M8.7,96.3h83.9
		c-0.3-2.2-0.8-4.1-1.2-4.5c-0.8-0.3-1.7-0.4-2.5-0.4c-0.9,0-1.9-0.2-2.8-0.4c-1.2-0.5-2.4-1.2-3.4-2c-0.9-0.7-1.9-1.3-3-1.8
		c-1.4-0.3-2.9-0.5-4.4-0.6c-2,0-3.9-0.3-5.8-0.9c-0.9-0.4-1.7-1-2.4-1.7c-0.4-0.4-0.9-0.8-1.4-1.1c-1.9-0.8-4-1.4-6-1.9l-1.1-0.3
		c-0.5-0.1-1.1-0.2-1.9-0.4c-1.3-0.2-2.6-0.5-3.9-1c-0.5-0.3-1-0.6-1.5-1c-0.3-0.3-0.6-0.5-0.9-0.7c-0.8,0-1.7,0.1-2.5,0.3
		c-0.6,0.2-1.2,0.4-1.8,0.6c-0.9,0.4-1.8,0.7-2.7,0.8c-1.1,0.1-2.3,0.1-3.4,0c-1-0.1-2.1-0.1-3.1,0c-1,0.4-2,0.9-2.9,1.4
		c-0.5,0.3-0.9,0.5-1.2,0.7l-1.9,1c-1.5,0.8-3.3,1.8-4.5,2.3c-1.4,0.7-2.9,1.2-4.4,1.5c-1.2,0.1-2.3,0.1-3.5-0.1
		c-1.3-0.2-2.6-0.2-3.9,0c-1.8,0.5-5.1,3.1-5.8,4.6C8.4,91.6,8.4,94,8.7,96.3L8.7,96.3z"/>
</g>
</svg>
