<?xml version="1.0" encoding="utf-8"?>
<!-- Generator: Adobe Illustrator 22.1.0, SVG Export Plug-In . SVG Version: 6.00 Build 0)  -->
<svg version="1.1" id="Capa_1" xmlns="http://www.w3.org/2000/svg" xmlns:xlink="http://www.w3.org/1999/xlink" x="0px" y="0px"
	 viewBox="0 0 100 100" style="enable-background:new 0 0 100 100;" xml:space="preserve">
<style type="text/css">
	.st0{fill:#00D8CD;}
</style>
<title>iconos</title>
<g id="planta_en_maceta">
	<path class="st0" d="M24.6,53.1c-0.4-1.6-0.8-3.1-1.1-4.7c-0.6-3-0.7-6-0.5-9c0.4-5.4,2.1-10.6,5-15.2c5.2-9,14.1-15.3,24.4-17.2
		c8.5-1.7,17.3-0.4,25,3.6c8.6,4.2,15.3,11.4,19.2,20.1c1.6,3.5,2.6,7.3,3.1,11.1c1.2,9.2-0.6,18.6-5.1,26.8
		c-3.5,6.4-8.4,11.8-14.4,15.9c-5.6,3.9-12,6.4-18.8,7.4c-10.2,1.5-20.6-0.3-29.6-5.2c-0.3-0.2-0.7-0.3-1.1-0.3
		c-5.2-0.1-10.4-1.4-15-3.8c-7.7-3.9-13-11.3-14.3-19.8c-1-6-0.3-12.1,2-17.7c0.2-0.7,1-1.2,1.7-1c0.1,0,0.2,0.1,0.4,0.2
		c3.8,2,7.8,3.7,11.9,5.2C19.8,50.5,22.3,51.7,24.6,53.1z M56.3,30.9l-7.6,5.9l-12.4,9.6c-0.2,0.2-0.5,0.3-0.7,0.3
		c-0.6,0.1-1.3-0.2-1.5-0.8c-0.3-0.7-0.1-1.4,0.5-1.8c1.8-1.4,3.7-2.8,5.5-4.2l15-11.6c1.1-0.8,1.6-0.8,2.5,0l8.5,7.5
		c0.9,0.8,1.8,1.5,2.7,2.4v-0.7c0-1.3,0-2.6,0-3.9c0-1,0.5-1.6,1.4-1.6s1.4,0.6,1.4,1.6c0,2.2,0,4.4,0,6.6c0,0.3,0.1,0.6,0.3,0.8
		c0.5,0.5,1,1,1.6,1.4l7.6,6.7c0.4,0.3,0.6,0.8,0.6,1.3c-0.1,0.9-0.2,1.9-0.4,2.8c-1.6,7.4-6.2,13.7-12.7,17.5
		C63.3,73.7,57,75,50.8,74.2c-5-0.6-9.8-2.4-13.9-5.3l-1.5-1.1c1.1,5.8-0.2,11.2-2.1,16.5l0.4,0.2c5.7,2.9,12,4.6,18.4,5
		c4.4,0.2,8.9-0.2,13.2-1.3C82.7,83.7,95.4,68.7,97,50.7c1.2-14.1-5.5-27.8-17.4-35.4c-6.6-4.4-14.4-6.5-22.2-6
		c-3.8,0.2-7.5,1.1-11,2.6c-4.6,1.9-8.7,4.8-12,8.6c-6.5,7.5-9.6,16.1-8.2,26c0.5,4.7,2.3,9.1,5.3,12.8c0.8,1,1.4,2.1,2.2,3
		c1.8,2,3.8,3.7,6.1,5c5.9,3.8,13,5.2,19.9,3.8c9.9-2,17.5-9.9,19.2-19.9c0-0.3-0.1-0.5-0.3-0.8c-1.6-1.4-3.1-2.8-4.7-4.1L63.3,37
		L56.3,30.9z M30.6,83l0.2-0.1c0.4-1.3,0.8-2.5,1.1-3.8c1.1-3.6,1.3-7.5,0.5-11.2c-0.3-1.8-1.1-3.5-2.1-5c-0.8-1-1.5-2-2.2-3
		c-0.2-0.2-0.4-0.5-0.6-0.7c-2.1-2.3-4.7-4.1-7.5-5.3c-2.4-1-4.8-1.9-7.2-2.9s-4.9-2.1-7.5-3.2c-2.5,8.1-2.3,16,2,23.5
		c4.2,7.2,12,11,18.3,11.9c0,0,0-0.1-0.1-0.1c-3.4-2.5-6.5-5.4-9.2-8.6C12.7,70,9.8,65,7.8,59.6c-0.1-0.3-0.2-0.6-0.1-0.9
		c0.1-0.7,0.6-1.2,1.3-1.2c0.7-0.1,1.3,0.3,1.5,1c1,2.2,1.9,4.5,3.1,6.7c2.8,5.1,6.5,9.7,11,13.3C26.5,80.1,28.6,81.5,30.6,83z"/>
	<path class="st0" d="M59.1,52.8c0.5,0,0.9,0,1.4,0c0.8,0,1.4,0.6,1.4,1.4c0,0,0,0,0,0c0,0.9,0,1.8,0,2.7c0,0.7-0.6,1.4-1.3,1.4
		c0,0,0,0-0.1,0c-0.9,0-1.9,0-2.8,0c-0.7,0-1.3-0.5-1.4-1.2c0,0,0,0,0,0c0-1-0.1-1.9,0-2.9c0-0.8,0.7-1.3,1.4-1.3c0,0,0,0,0,0H59.1z
		"/>
	<path class="st0" d="M59.1,51.7h-1.3c-0.7,0.1-1.4-0.5-1.5-1.2c0,0,0-0.1,0-0.1c-0.1-1-0.1-1.9,0-2.9c0-0.7,0.6-1.3,1.4-1.3
		c0.9,0,1.9,0,2.8,0c0.8,0,1.4,0.6,1.4,1.4c0,0,0,0.1,0,0.1c0,0.9,0,1.7,0,2.6c0,0.8-0.6,1.5-1.3,1.5c-0.1,0-0.1,0-0.2,0
		C59.9,51.7,59.5,51.7,59.1,51.7z"/>
	<path class="st0" d="M49.6,48.9v-1.4c0-0.7,0.5-1.2,1.2-1.3c1.1-0.1,2.2-0.1,3.3,0c0.6,0.1,1.1,0.6,1.1,1.2c0,1,0,2,0,3
		c0,0.7-0.6,1.3-1.3,1.3c-1,0-1.9,0-2.8,0c-0.7,0-1.3-0.6-1.3-1.3c0,0,0,0,0,0C49.6,49.8,49.6,49.4,49.6,48.9z"/>
	<path class="st0" d="M52.3,58.3c-0.5,0-0.9,0-1.3,0c-0.7,0-1.3-0.5-1.3-1.3c0,0,0,0,0,0c0-1,0-2,0-3c0-0.7,0.7-1.2,1.4-1.2
		c0.9,0,1.9,0,2.8,0c0.8,0,1.4,0.6,1.4,1.3c0,0,0,0.1,0,0.1c0,0.9,0,1.8,0,2.7c0.1,0.7-0.5,1.4-1.2,1.4c0,0-0.1,0-0.1,0
		C53.3,58.3,52.8,58.3,52.3,58.3z"/>
</g>
</svg>
