<?xml version="1.0" encoding="utf-8"?>
<!-- Generator: Adobe Illustrator 22.1.0, SVG Export Plug-In . SVG Version: 6.00 Build 0)  -->
<svg version="1.1" id="tienda" xmlns="http://www.w3.org/2000/svg" xmlns:xlink="http://www.w3.org/1999/xlink" x="0px" y="0px"
	 viewBox="0 0 100 100" style="enable-background:new 0 0 100 100;" xml:space="preserve">
<style type="text/css">
	.st0{fill:#00D8CD;}
</style>
<title>iconos</title>
<path class="st0" d="M89.8,96h-3V46.5H13.2V96h-3V45c0-0.8,0.7-1.5,1.5-1.5h76.6c0.8,0,1.5,0.7,1.5,1.5V96z"/>
<path class="st0" d="M94.5,98.9h-89c-0.8,0-1.5-0.7-1.5-1.5s0.7-1.5,1.5-1.5h89c0.8,0,1.5,0.7,1.5,1.5S95.3,98.9,94.5,98.9z"/>
<path class="st0" d="M33,42.6c-0.3,0-0.6,0-0.8,0c-4.8,0.2-8.8-3.5-9-8.3c0,0,0-0.1,0-0.1l1-29.3c0-0.8,0.7-1.5,1.5-1.5
	c0.8,0,1.5,0.7,1.5,1.5l-1,29.2c0.2,3.2,2.9,5.6,6.1,5.4c0,0,0,0,0,0h0.2c2.7,0.3,5.2-1.2,6.2-3.7c0.3-0.8,1.1-1.2,1.9-0.9
	c0.8,0.3,1.2,1.1,0.9,1.9c0,0.1-0.1,0.1-0.1,0.2C40.1,40.4,36.7,42.7,33,42.6z"/>
<path class="st0" d="M85.3,41.8c-3.2,0-7.8-0.9-10.6-5.2c-0.5-0.7-0.3-1.6,0.4-2.1c0.7-0.5,1.6-0.3,2.1,0.4c3.4,5.3,11,3.6,11.1,3.5
	h0.2c5.6-0.5,7.5-5.7,7.9-7.2L84.6,6.4H16L4.1,31.2c0.4,1.6,2.3,6.8,7.9,7.2h0.3c0.3,0.1,7.7,1.7,11-3.5c0.5-0.7,1.4-0.9,2.1-0.5
	c0.7,0.5,0.9,1.4,0.5,2.1c-4.3,6.8-12.8,5.2-14.1,4.9c-7-0.5-10-6.8-10.6-10.1c-0.1-0.3,0-0.6,0.1-0.9L13.7,4.3
	c0.2-0.5,0.8-0.9,1.4-0.8h70.4c0.6,0,1.1,0.3,1.4,0.8l12.5,26.1c0.1,0.3,0.2,0.6,0.1,0.9c-0.6,3.3-3.6,9.6-10.7,10.1
	C87.7,41.6,86.5,41.8,85.3,41.8z"/>
<path class="st0" d="M67.6,42.6c-3.7,0-7-2.2-8.4-5.6c-0.3-0.8,0.1-1.6,0.8-2c0.8-0.3,1.6,0.1,2,0.8c1,2.5,3.5,4,6.2,3.7h0.2
	c3.2,0.2,5.9-2.2,6.2-5.4L73.4,5c0-0.8,0.6-1.5,1.4-1.5c0.8,0,1.5,0.6,1.6,1.5l1,29.3v0.1c-0.2,4.8-4.2,8.4-9,8.3
	C68.2,42.6,67.9,42.6,67.6,42.6z"/>
<path class="st0" d="M53.3,42.5h-6c-4.8,0.2-8.9-3.5-9.2-8.3V5.7c0-0.8,0.7-1.5,1.5-1.5s1.5,0.7,1.5,1.5v28.4c0.2,3.2,3,5.6,6.1,5.4
	c0,0,0,0,0,0h6c3.2,0.2,6-2.2,6.2-5.4c0,0,0,0,0,0V5.7c0-0.8,0.7-1.5,1.5-1.5s1.5,0.7,1.5,1.5v28.4C62.3,39,58.2,42.7,53.3,42.5
	C53.4,42.5,53.3,42.5,53.3,42.5z"/>
<path class="st0" d="M29,79.2c-0.8,0-1.5-0.7-1.5-1.5V64.8c0-0.8,0.7-1.5,1.5-1.5s1.5,0.7,1.5,1.5v12.9C30.5,78.5,29.8,79.2,29,79.2
	z"/>
<path class="st0" d="M56.4,81.9c-0.4,0-0.8-0.2-1.1-0.4c-0.6-0.6-0.6-1.5,0-2.1c0,0,0,0,0,0l22.5-22.5c0.7-0.5,1.6-0.3,2.1,0.3
	c0.4,0.5,0.4,1.3,0,1.8L57.5,81.4C57.2,81.7,56.8,81.9,56.4,81.9z"/>
<path class="st0" d="M62.9,88.4c-0.8,0-1.5-0.7-1.5-1.5c0-0.4,0.2-0.8,0.4-1.1l16-16c0.7-0.5,1.6-0.4,2.1,0.3c0.4,0.5,0.4,1.2,0,1.8
	l-16,16C63.7,88.2,63.3,88.4,62.9,88.4z"/>
<rect x="34.6" y="45" class="st0" width="3" height="51"/>
</svg>
