<?xml version="1.0" encoding="utf-8"?>
<!-- Generator: Adobe Illustrator 22.1.0, SVG Export Plug-In . SVG Version: 6.00 Build 0)  -->
<svg version="1.1" id="Capa_1" xmlns="http://www.w3.org/2000/svg" xmlns:xlink="http://www.w3.org/1999/xlink" x="0px" y="0px"
	 viewBox="0 0 100 100" style="enable-background:new 0 0 100 100;" xml:space="preserve">
<style type="text/css">
	.st0{fill:#00D8CD;}
</style>
<title>iconos</title>
<g id="siembra">
	<path class="st0" d="M98.9,54.5C95.5,43,84.6,35.3,72.7,36l-1.6,0.1c0.1-0.3,0.2-0.5,0.3-0.8c0.4-1.3,0.8-2.6,1.1-4
		c0.1-0.5,0.3-1,0.7-1.4c2.3-2.4,3.3-5.7,2.7-9c-0.8-5.1-5.1-9-10.3-9.2c-0.3,0-0.6-0.2-0.7-0.5C64.3,10.1,63.7,9,63,8
		c-5.5-7.6-16.1-9.4-23.7-3.9c-2.5,1.8-4.5,4.2-5.7,7c-0.1,0.3-0.4,0.5-0.8,0.5c-2.4-0.1-4.8,0.3-7,1.2c-5.6,2.1-9.6,7.1-10.6,13
		c-0.4,2.3-0.3,4.6,0.2,6.8c0.1,0.3,0,0.6-0.2,0.8L0.6,47.2c-0.7,0.5-0.8,1.4-0.4,2.1c0.1,0.1,0.2,0.2,0.3,0.3l5.3,5.6
		c0.5,0.7,1.5,0.8,2.2,0.3c0.1-0.1,0.2-0.2,0.3-0.3l3.7-3.5c0.9-0.8,8.2-7.8,9.8-9.3c7.7,4.8,15,4.3,22-1.5c2.7,2.6,6.2,4.2,9.9,4.6
		c0,0.1-0.1,0.2-0.1,0.3c-3.3,4.2-5.2,9.3-5.4,14.6c0,0.5,0,0.9-0.2,1.4c-0.6,1.6-1.3,3.1-1.9,4.7c-0.9,2.2-1.8,4.5-2.7,6.7
		c-0.4,0.7-0.1,1.6,0.7,2c0.2,0.1,0.4,0.1,0.6,0.2c0.8,0.1,1.5,0.1,2.3,0.2l4,0.4c0,0.2,0.1,0.4,0.1,0.6c0.3,3.8,0.6,7.5,0.8,11.3
		c-0.1,0.9,0.5,1.7,1.4,1.8c0.2,0,0.4,0,0.6,0c2.3-0.1,4.5-0.1,6.8-0.2c0.1,0,0.2,0,0.4,0V90c0,2.8,0,5.6,0,8.4
		c-0.1,0.8,0.5,1.5,1.4,1.6c0.8,0.1,1.5-0.5,1.6-1.4c0-0.1,0-0.2,0-0.2c0-3.5,0-7,0-10.6c0.1-0.8-0.5-1.5-1.2-1.6
		c-0.1,0-0.2,0-0.3,0c-1,0-1.9,0.1-2.9,0.1H55c-0.1-0.8-0.2-1.8-0.2-2.7c-0.2-3-0.5-6.1-0.7-9.2c0-0.8-0.6-1.4-1.4-1.4
		c-1.2-0.1-2.3-0.2-3.5-0.3l-2.1-0.2l0.2-0.6c1.1-2.8,2.2-5.6,3.3-8.3c0.5-1,0.7-2.1,0.7-3.2c0-0.4,0-0.7,0.1-1.1
		c0.2-2.4,0.9-4.7,1.9-6.9c0.9-1.9,2-3.7,3.4-5.3l0.3,0.4c2.5,4.2,5.1,8.3,7.6,12.5c0.2,0.3,0.4,0.6,0.7,0.8c0.4,0.3,1,0.3,1.5,0
		c0.5-0.3,0.8-0.8,0.8-1.4c0-5.7,0-11.3,0-16.9c-0.1-0.9,0.2-1.9,1-2.4c0.3-0.3,0.6-0.5,1-0.6c2.3-0.5,4.7-0.7,7-0.4
		c6,0.5,11.5,3.4,15.3,8.1c5,5.9,6.7,13.9,4.3,21.3c-1.6,5.7-5.5,10.5-10.7,13.3c-0.7,0.3-1.1,1-1,1.8c0,1.9,0,3.8,0,5.6
		c0,3.1,0,6.1,0,9.2c-0.1,0.6,0.2,1.1,0.7,1.5c0.7,0.4,1.6,0.2,2-0.6c0.1-0.3,0.2-0.6,0.2-0.9c0-4.5,0-9.1,0-13.6
		c0-0.5,0.2-0.9,0.6-1.1c3.1-1.9,5.7-4.4,7.7-7.4C99.9,69.9,101.2,61.9,98.9,54.5z M7.2,52.3l-3.5-3.7l0.8-1l3.6,3.8L7.2,52.3z
		 M10.6,49.1l-0.3,0.2l-3.6-3.8l4.8-4.5c3.2-3,6.3-6,9.5-9c0.8-0.8,1.8-0.8,2.7-1c0.1,0,0.2,0.1,0.3,0.2s0.4,0.4,0.5,0.5
		c0.4,0.5,1.1,0.9,1.3,1.5c0,0.6-0.2,1.3-0.5,1.8c-0.2,0.4-0.5,0.7-0.8,1C19.8,40.4,15.2,44.7,10.6,49.1z M69.7,30.1
		c-0.3,3.5-2,6.7-4.6,9c-0.4,0.4-0.7,1-0.6,1.6c0,4.3,0,8.6,0,12.8V54h-0.1c-0.2-0.4-0.5-0.8-0.8-1.2c-1.9-3-3.8-6.1-5.6-9.2
		c-0.3-0.6-0.9-1-1.6-0.9c-4.3,0.2-8.4-1.5-11.2-4.7c-0.4-0.7-1.4-0.9-2.1-0.5c-0.2,0.1-0.4,0.3-0.5,0.5c-2.7,3-6.5,4.8-10.6,4.7
		c-2.7,0-5.3-0.8-7.5-2.2c-0.1-0.1-0.2-0.1-0.3-0.2c1-1,2.1-2,3.1-3c0.3-0.3,0.6-0.7,0.7-1.2c0.8-2.3,1.5-4.6,2.2-6.9
		c0.5,0,1,0.1,1.4,0.1c3.8,0,7.6,0,11.4,0c7,0,14.1,0,21.1,0c0.6,0.1,1.2-0.3,1.5-0.8c0.4-0.7,0.1-1.6-0.6-1.9
		c-0.2-0.1-0.5-0.2-0.7-0.2h-8.4c-3.8,0-7.7,0-11.5,0c-4.3,0-8.6,0-12.9,0c-0.4,0-0.8,0.1-1.2,0.2c-0.1,0-0.3,0-0.4,0
		c-0.4-0.1-0.8-0.2-1.3-0.1c-2.7,0.7-5.4,1.3-8,2.1c-0.7,0.4-1.4,0.8-1.9,1.4c-0.2,0.1-0.3,0.3-0.6,0.5c0-0.5-0.1-0.9-0.1-1.2
		c-0.4-7,4.4-13.2,11.3-14.6c1.5-0.3,3-0.4,4.6-0.1c0.8,0.2,1.7-0.3,1.9-1.1c0,0,0,0,0-0.1c1.5-4.5,5.1-7.9,9.7-9.1
		c7.2-1.9,14.6,2,17,9c0.4,1.1,0.8,1.4,2,1.3c3.3-0.3,6.4,1.5,7.8,4.4c1.5,3.1,0.8,6.8-1.7,9.2C70.1,28.8,69.8,29.4,69.7,30.1
		L69.7,30.1z"/>
	<path class="st0" d="M45.6,20.5h12.7c0.6-0.1,1.2,0.3,1.4,0.8c0.2,0.5,0.2,1-0.2,1.4c-0.3,0.4-0.8,0.6-1.3,0.6H32.9
		c-0.8,0.1-1.5-0.5-1.6-1.3c0-0.1,0-0.2,0-0.3c0.1-0.8,0.7-1.4,1.5-1.3L45.6,20.5z"/>
</g>
<image style="overflow:visible;" width="157" height="157" xlink:href="../FAVICON_Mesa de trabajo 1.png"  transform="matrix(0.48 0 0 0.48 -92.5 9.9)">
</image>
</svg>
