<?xml version="1.0" encoding="utf-8"?>
<!-- Generator: Adobe Illustrator 22.1.0, SVG Export Plug-In . SVG Version: 6.00 Build 0)  -->
<svg version="1.1" id="Capa_1" xmlns="http://www.w3.org/2000/svg" xmlns:xlink="http://www.w3.org/1999/xlink" x="0px" y="0px"
	 viewBox="0 0 100 100" style="enable-background:new 0 0 100 100;" xml:space="preserve">
<style type="text/css">
	.st0{fill:#00D8CD;}
</style>
<title>iconos</title>
<g id="planta_en_maceta">
	<path class="st0" d="M50.9,99.9H25.5c-2.1,0-7.8,0-8.1-7.1c-0.2-5.2-0.1-19,0-23.5c-6-0.4-7.1-3.1-7.3-5.8c-0.1-1.8,0-6.9,0-7.1
		v-1.5h56v1.5c0,0.2,0.1,5.3,0,7.1c-0.2,2.7-1.3,5.4-7.3,5.8c0,4.6,0.2,18.3,0,23.5C58.6,99.8,53.2,99.9,50.9,99.9z M13.1,57.8
		c0,1.8-0.1,4.3,0,5.3c0.1,1.5,0.3,3.1,5.8,3.1h1.5v1.5c0,0.2-0.2,18.7,0,24.8c0.1,3.9,2.2,4.2,5,4.2h25.4c2.8,0,4.9-0.3,5-4.2
		c0.2-6.1,0-24.7,0-24.8v-1.5h1.5c5.5,0,5.7-1.7,5.8-3.1c0.1-1,0.1-3.5,0-5.3L13.1,57.8z"/>
	<rect x="24.1" y="66.3" class="st0" width="27.8" height="3"/>
	<path class="st0" d="M37.8,54.1c0-0.6-0.3-14.7,13.7-23.9c-1.6-4-5.4-16.2,5.8-25.4c1.1-1.1,11.3-10,41.3,0.8l1.4,0.5l-0.5,1.4
		c-0.3,0.9-8.2,21.6-21.6,27.2c-5.1,2.2-13.4,3.6-24.3-2l0.3-0.7C40.6,40.5,40.8,53.5,40.8,54L37.8,54.1z M55,30.2
		c9.8,5,17.2,3.8,21.7,1.9C87,27.7,94.1,12.7,96.1,8C68.2-1.6,59.5,7,59.4,7l-0.1,0.1c-11.6,9.5-4.8,22.4-4.5,22.9l0.2,0.3L55,30.2z
		"/>
	<path class="st0" d="M39.1,44.7c-1.4-2.6-3.2-4.9-5.3-6.9c-4.2,3.4-9.7,4.6-14.9,3.4C10.2,38.9,5.1,31.3,4.1,19
		C3.7,13.2,4,7.3,5.1,1.6L5.4,0L7,0.5c19.1,6.2,28.5,12.1,31.5,19.9c1.6,3.9,1.5,8.4-0.4,12.2c-0.6,1.1-1.3,2.2-2.2,3.1
		c2.3,2.2,4.2,4.8,5.8,7.6L39.1,44.7z M7.8,3.9c-1,6.6-3.6,30.4,11.8,34.4c4.1,1,8.4,0.1,11.8-2.4l0,0l1.5-1.2
		c0.2-0.2,6-4.9,2.9-13.2C33.2,14.9,24.6,9.4,7.8,3.9z"/>
	<path class="st0" d="M58.7,27.8l-2.5-1.6c0.4-0.6,9.3-14.8,26.3-16.4l0.3,3C67.2,14.3,58.8,27.7,58.7,27.8z"/>
	<path class="st0" d="M27.8,32.4c-0.5-0.1-12.4-3.2-15-15.2l2.9-0.6C18,26.7,28.4,29.5,28.5,29.5L27.8,32.4z"/>
</g>
</svg>
