<?xml version="1.0" encoding="utf-8"?>
<!-- Generator: Adobe Illustrator 22.1.0, SVG Export Plug-In . SVG Version: 6.00 Build 0)  -->
<svg version="1.1" id="Capa_1" xmlns="http://www.w3.org/2000/svg" xmlns:xlink="http://www.w3.org/1999/xlink" x="0px" y="0px"
	 viewBox="0 0 100 100" style="enable-background:new 0 0 100 100;" xml:space="preserve">
<style type="text/css">
	.st0{fill:#00D8CD;}
</style>
<title>iconos</title>
<g id="siembra">
	<path class="st0" d="M73.9,51.9c-0.9-1.5-1.7-3-2.5-4.6L58.7,60.5l-0.3-0.2c0.1,0.2,0.2,0.3,0.3,0.5c2.3,2.6,2.1,6.6-0.5,9
		c-0.6,0.6-1.4,1-2.2,1.3c-0.6,0.2-1,0.6-1.4,1.1c-0.8,1.1-1.5,2.3-2.3,3.5c-0.3,0.6-1,1-1.7,1c-2.1,0-4.2,0-6.3,0
		c-1.1,0-1.7-0.5-1.8-1.3s0.6-1.4,1.8-1.5c1.6,0,3.2,0,4.8,0c0.7,0.1,1.3-0.3,1.6-0.9c0.3-0.6,0.7-1.2,1.2-1.9
		c-0.4-0.2-0.7-0.3-1-0.4c-1.6-0.8-2.8-2.2-3.2-4c-0.2-0.8-0.5-0.9-1.2-0.9c-1,0-2,0-3,0c-0.7,0-1,0.2-1,1c0.2,4.6-1.6,9-4.9,12.2
		c-6.6,6.5-17.3,6.5-23.8-0.2c-1.3-1.3-2.4-2.9-3.2-4.6c-1.4-3.2-1.8-6.8-1.2-10.3c0.8-7,8.3-15.1,18.9-13.6c0.2,0,0.4,0,0.8,0
		c-0.9-1.2-1.7-2.1-3.4-2c-7.7,0.1-15.5,0-23.2,0c-0.4,0-0.7,0-1.1,0c-0.8,0-1.4-0.7-1.3-1.4c0,0,0,0,0,0c0-0.7,0.6-1.3,1.3-1.3
		c0,0,0,0,0,0c0.2,0,0.5,0,0.7,0c8.3,0,16.7,0,25,0c0.9,0,1.8,0.3,2.4,1c1.8,1.9,3.6,3.8,5.4,5.7c0.2,0.3,0.4,0.6,0.6,1l10-12
		L44.4,40c-2.5-2-5-4-7.5-6c-0.4-0.3-0.8-0.4-1.3-0.4c-1.9,0-3.8,0-5.7,0c-2.1,0.2-3.9-1.4-4.1-3.5c-0.2-2.1,1.4-3.9,3.5-4.1
		c0.2,0,0.4,0,0.6,0h14.6c1.9,0.2,3.4,1.7,3.5,3.6c0.1,2-1.4,3.8-3.4,3.9c-1.1,0-2.2,0.1-3.3,0.2c0.4,0.3,0.8,0.7,1.2,1
		c1.6,1.3,3.2,2.6,4.8,3.9c0.4,0.3,0.9,0.5,1.3,0.5c6.3,0.2,12.5,0.3,18.8,0.4c0.8,0,1.1-0.2,1.3-1c0.6-2.8,1.3-5.5,2-8.3
		c0.2-0.5,0.1-1.2-0.4-1.5c-0.9-0.9-1.8-1.8-2.8-2.8c-0.8-0.8-1.9-1.1-2.9-1c-1.4,0.2-2.7,0.3-4.1,0.5c-0.3,0-0.5,0-0.8,0
		c-0.6,0-1.1-0.5-1.1-1.1c0,0,0-0.1,0-0.1c-0.1-0.6,0.3-1.2,0.9-1.3c0,0,0,0,0.1,0c1.7-0.3,3.5-0.6,5.2-0.8c1.7-0.1,3.3,0.4,4.5,1.6
		c1.3,1.3,2.6,2.6,4,4c0.5,0.5,0.7,1.3,0.4,1.9c-0.8,3.3-1.6,6.6-2.4,9.8c-0.3,0.8-0.2,1.7,0.3,2.4c1.4,2.5,2.8,5,4.1,7.6
		c0.2,0.8,1,1.2,1.8,1c0.1,0,0.1,0,0.2-0.1c9-2.1,18,3.5,20.1,12.6s-3.5,18-12.6,20.1s-18-3.5-20.1-12.6c-1.5-6.4,0.9-13.1,6.2-17.1
		C72.1,52.9,73,52.5,73.9,51.9z M67.7,66.8c0,7.7,6.3,14,14,14s14-6.3,14-14c0-7.7-6.2-13.9-13.9-14C74.6,52.7,67.4,58.8,67.7,66.8z
		 M39.8,66.3c0.1-8-7.5-14.1-14.9-13.6c-7.5,0.6-13.3,7.1-13,14.6c0.4,7.7,6.9,13.7,14.6,13.3C34.2,80.5,40.1,74.1,39.8,66.3
		C39.8,66.4,39.8,66.4,39.8,66.3z M50,42.1c0,0.2,0,0.4,0,0.5c1.7,5.1,3.3,10.2,5,15.3c0.3,0.8,0.7,0.8,1.2,0.2
		c4.4-4.3,8.8-8.7,13.2-13c0.2-0.2,0.3-0.4,0.3-0.7c-0.2-1.1-1.1-2-2.3-2l-16.4-0.3L50,42.1z M47.4,43.6c-0.1,0.1-0.2,0.1-0.3,0.2
		c-3,3.5-5.9,7.1-8.8,10.6c-0.1,0.3-0.1,0.7,0.1,1c1.7,1.9,3,4.1,3.7,6.5c0.1,0.5,0.6,0.9,1.1,0.8c1.2,0,2.3,0,3.5,0
		c0.6,0.1,1.2-0.2,1.5-0.8c0.6-1.4,1.8-2.5,3.3-3c0.3-0.1,0.6-0.2,0.9-0.4C50.7,53.6,49,48.7,47.4,43.6L47.4,43.6z M57.5,64.9
		c0-1.7-1.6-3.6-3.2-3.7c-2.1-0.1-4,1.4-4,3.2c-0.2,2,1.3,3.8,3.3,4c0.1,0,0.3,0,0.4,0C56,68.3,57.5,66.8,57.5,64.9L57.5,64.9z
		 M37,30.8h7.1c0.7,0,1.1-0.3,1.1-1c0-0.6-0.4-1-1-1c0,0-0.1,0-0.1,0c-4.7,0-9.3,0-14,0c-0.7,0-1.4,0.1-1.4,1s0.7,1,1.4,1H37z"/>
	<path class="st0" d="M13.4,25.6c2.6,0,5.2,0,7.8,0c1.6-0.2,3,0.9,3.2,2.5c0,0.2,0,0.5,0,0.7c0,3.9,0,7.7,0,11.6
		c0.2,1.6-1,3-2.5,3.2c-0.2,0-0.4,0-0.6,0c-5.3,0-10.6,0-15.9,0c-1.6,0.1-3-1-3.1-2.6c0-0.2,0-0.4,0-0.5c0-3.8,0-7.7,0-11.5
		c0-2.2,1.1-3.3,3.3-3.3C8.1,25.6,10.8,25.6,13.4,25.6z M12.2,28.4c0,0.5-0.1,0.9-0.1,1.3c0,1.7,0,3.5,0,5.2
		c0.1,0.7-0.4,1.3-1.1,1.4c-0.1,0-0.2,0-0.3,0c-0.7,0-1.3-0.5-1.4-1.2c0,0,0,0,0-0.1c0-0.3,0-0.6,0-0.9c0-1.6,0-3.1,0-4.7
		c0-0.8-0.2-1-1-1c-0.8,0-1.6,0-2.4,0c-0.7,0-0.9,0.2-0.9,0.9c0,3.5,0,7.1,0,10.6c0,0.6,0.1,0.8,0.8,0.8c5,0,10,0,15,0
		c0.5,0,0.7-0.1,0.7-0.7c0-3.7,0-7.3,0-11c0-0.2-0.3-0.6-0.5-0.6C18.1,28.4,15.2,28.4,12.2,28.4z"/>
</g>
</svg>
